<svg id="Layer_1" data-name="Layer 1" xmlns="http://www.w3.org/2000/svg" viewBox="0 0 740 360"><defs><style>.cls-1{fill:#fff;}.cls-2,.cls-6{fill:#333;}.cls-3{fill:#c69c6d;}.cls-4{fill:#0181c4;}.cls-5{fill:none;stroke:#a67c52;stroke-miterlimit:10;}.cls-6{font-size:150.64px;font-family:ArialRoundedMTBold, Arial Rounded MT Bold;}.cls-7{letter-spacing:-0.01em;}</style></defs><title>Artboard 1</title><rect class="cls-1" x="103.32" y="88.55" width="104.93" height="177.4" rx="5" ry="5"/><path class="cls-2" d="M201.25,95.55V259H110.32V95.55h90.93m2-14H108.32a12,12,0,0,0-12,12V261a12,12,0,0,0,12,12h94.93a12,12,0,0,0,12-12V93.55a12,12,0,0,0-12-12Z"/><path class="cls-3" d="M234.89,319.53a13.13,13.13,0,0,1-10.16-4.75l-71.61-86.73a13.21,13.21,0,0,1,1.77-18.5l6.94-5.73a13.18,13.18,0,0,1,18.5,1.77l71.61,86.72a13.16,13.16,0,0,1-1.76,18.5l-7,5.74A13.14,13.14,0,0,1,234.89,319.53Z"/><path class="cls-1" d="M170.18,196.33v9a8.62,8.62,0,0,1,6.68,3.12l71.61,86.73a8.63,8.63,0,0,1-1.16,12.16l-6.94,5.74a8.55,8.55,0,0,1-5.48,1.95,8.64,8.64,0,0,1-6.69-3.11l-71.61-86.73A8.72,8.72,0,0,1,157.75,213l6.95-5.73a8.51,8.51,0,0,1,5.48-2v-9m0,0a17.56,17.56,0,0,0-11.21,4L152,206.08a17.71,17.71,0,0,0-2.37,24.84l71.61,86.73A17.72,17.72,0,0,0,246.1,320l6.94-5.74a17.69,17.69,0,0,0,2.37-24.83L183.8,202.72a17.61,17.61,0,0,0-13.62-6.39Z"/><path class="cls-1" d="M167.26,220.62a.37.37,0,0,1,0-.48l2.49-2.06A.43.43,0,0,1,170,218a.35.35,0,0,1,.27.11l4,4.89-3,2.48Z"/><path class="cls-1" d="M170,212a6.33,6.33,0,0,0-4,1.44l-2.49,2.06a6.35,6.35,0,0,0-.85,8.92l6.59,8a2,2,0,0,0,2.79.27l9.21-7.61a2,2,0,0,0,.26-2.79l-6.59-8A6.32,6.32,0,0,0,170,212Z"/><path class="cls-4" d="M104.91,36A53.88,53.88,0,0,0,51,89.87a4,4,0,0,0,7.94,0,46,46,0,0,1,46-46,4,4,0,0,0,0-7.94Z"/><path class="cls-4" d="M64.44,89.49a4,4,0,0,0,7.94,0,32.13,32.13,0,0,1,32.14-32.14,4,4,0,0,0,0-7.94A40.13,40.13,0,0,0,64.44,89.49Z"/><path class="cls-4" d="M77.17,90.18a4,4,0,0,0,7.94,0,20.09,20.09,0,0,1,20.11-20.1,4,4,0,0,0,0-7.94A28.08,28.08,0,0,0,77.17,90.18Z"/><line class="cls-5" x1="197.77" y1="241.61" x2="184.93" y2="252.32"/><line class="cls-5" x1="195.39" y1="238.76" x2="182.55" y2="249.47"/><line class="cls-5" x1="196.58" y1="240.19" x2="183.74" y2="250.9"/><line class="cls-5" x1="219.14" y1="266.7" x2="206.3" y2="277.41"/><line class="cls-5" x1="216.76" y1="263.84" x2="203.92" y2="274.55"/><line class="cls-5" x1="217.95" y1="265.27" x2="205.11" y2="275.98"/><text class="cls-6" transform="translate(221.72 236.24)">uiz<tspan class="cls-7" x="210.29" y="0">z</tspan><tspan x="286.78" y="0">en</tspan></text></svg>