<?xml version="1.0" encoding="iso-8859-1"?>
<!-- Generator: Adobe Illustrator 19.0.0, SVG Export Plug-In . SVG Version: 6.00 Build 0)  -->
<svg version="1.1" id="Layer_1" xmlns="http://www.w3.org/2000/svg" xmlns:xlink="http://www.w3.org/1999/xlink" x="0px" y="0px"
	 viewBox="0 0 512 512" style="enable-background:new 0 0 512 512;" xml:space="preserve">
<g>
	<polygon style="fill:#ACABB1;" points="512,222.334 358.699,5.345 210.557,42.478 0,164.841 148.14,127.707 148.14,127.707 
		0,164.841 7.052,180.222 36.291,172.891 36.291,368.914 125.227,420.585 185.169,385.75 185.169,454.984 274.866,506.655 
		274.866,333.624 274.866,333.624 274.866,506.655 469.824,393.032 470.23,249.673 504.883,229.535 	"/>
	<polygon style="fill:#ACABB1;" points="125.587,293.487 321.105,179.865 320.745,306.962 125.227,420.585 	"/>
	<polygon style="fill:#ACABB1;" points="274.866,309.045 470.384,195.422 469.824,393.032 274.866,506.655 	"/>
</g>
<g style="enable-background:new    ;">
	<polygon style="fill:#E0E0E2;" points="0,164.841 210.557,42.478 358.699,5.345 148.14,127.707 	"/>
	<polygon style="fill:#C6C5CB;" points="301.443,344.697 512,222.334 504.883,229.535 294.325,351.898 	"/>
	<polygon style="fill:#D8D8DA;" points="148.14,127.707 358.699,5.345 512,222.334 301.443,344.697 	"/>
	<polygon style="fill:#C6C5CB;" points="301.443,344.697 148.14,127.707 0,164.841 7.052,180.222 36.291,172.891 36.291,368.914 
		125.227,420.585 125.587,293.487 185.169,327.887 185.169,454.984 274.866,506.655 274.866,324.346 294.325,351.898 	"/>
</g>
<g>
</g>
<g>
</g>
<g>
</g>
<g>
</g>
<g>
</g>
<g>
</g>
<g>
</g>
<g>
</g>
<g>
</g>
<g>
</g>
<g>
</g>
<g>
</g>
<g>
</g>
<g>
</g>
<g>
</g>
</svg>
